<?xml version="1.0" encoding="utf-8"?>
<!-- Generator: Adobe Illustrator 28.0.0, SVG Export Plug-In . SVG Version: 6.00 Build 0)  -->
<svg version="1.1" id="Camada_2_00000050637182743161938170000014469625541639307417_"
	 xmlns="http://www.w3.org/2000/svg" xmlns:xlink="http://www.w3.org/1999/xlink" x="0px" y="0px" viewBox="0 0 290 50"
	 style="enable-background:new 0 0 290 50;" xml:space="preserve">
<style type="text/css">
	.st0{fill:none;stroke:#FFFFFF;stroke-width:0.5;stroke-miterlimit:10;}
</style>
<g id="Layer_1">
	<circle class="st0" cx="283.4" cy="6.8" r="5.1"/>
	<circle class="st0" cx="264.5" cy="6.8" r="5.1"/>
	<circle class="st0" cx="245.6" cy="6.8" r="5.1"/>
	<circle class="st0" cx="226.6" cy="6.8" r="5.1"/>
	<circle class="st0" cx="207.7" cy="6.8" r="5.1"/>
	<circle class="st0" cx="188.8" cy="6.8" r="5.1"/>
	<circle class="st0" cx="169.9" cy="6.8" r="5.1"/>
	<circle class="st0" cx="150.9" cy="6.8" r="5.1"/>
	<circle class="st0" cx="132" cy="6.8" r="5.1"/>
	<circle class="st0" cx="113.1" cy="6.8" r="5.1"/>
	<circle class="st0" cx="94.1" cy="6.8" r="5.1"/>
	<circle class="st0" cx="75.2" cy="6.8" r="5.1"/>
	<circle class="st0" cx="56.3" cy="6.8" r="5.1"/>
	<circle class="st0" cx="37.4" cy="6.8" r="5.1"/>
	<circle class="st0" cx="273.2" cy="18.9" r="5.1"/>
	<circle class="st0" cx="254.2" cy="18.9" r="5.1"/>
	<circle class="st0" cx="235.3" cy="18.9" r="5.1"/>
	<circle class="st0" cx="216.4" cy="18.9" r="5.1"/>
	<circle class="st0" cx="197.5" cy="18.9" r="5.1"/>
	<circle class="st0" cx="178.5" cy="18.9" r="5.1"/>
	<circle class="st0" cx="159.6" cy="18.9" r="5.1"/>
	<circle class="st0" cx="140.7" cy="18.9" r="5.1"/>
	<circle class="st0" cx="121.7" cy="18.9" r="5.1"/>
	<circle class="st0" cx="102.8" cy="18.9" r="5.1"/>
	<circle class="st0" cx="83.9" cy="18.9" r="5.1"/>
	<circle class="st0" cx="65" cy="18.9" r="5.1"/>
	<circle class="st0" cx="46" cy="18.9" r="5.1"/>
	<circle class="st0" cx="27.1" cy="18.9" r="5.1"/>
	<circle class="st0" cx="262.9" cy="31.1" r="5.1"/>
	<circle class="st0" cx="244" cy="31.1" r="5.1"/>
	<circle class="st0" cx="225.1" cy="31.1" r="5.1"/>
	<circle class="st0" cx="206.1" cy="31.1" r="5.1"/>
	<circle class="st0" cx="187.2" cy="31.1" r="5.1"/>
	<circle class="st0" cx="168.3" cy="31.1" r="5.1"/>
	<circle class="st0" cx="149.3" cy="31.1" r="5.1"/>
	<circle class="st0" cx="130.4" cy="31.1" r="5.1"/>
	<circle class="st0" cx="111.5" cy="31.1" r="5.1"/>
	<circle class="st0" cx="92.6" cy="31.1" r="5.1"/>
	<circle class="st0" cx="73.6" cy="31.1" r="5.1"/>
	<circle class="st0" cx="54.7" cy="31.1" r="5.1"/>
	<circle class="st0" cx="35.8" cy="31.1" r="5.1"/>
	<circle class="st0" cx="16.8" cy="31.1" r="5.1"/>
	
		<ellipse transform="matrix(0.2298 -0.9732 0.9732 0.2298 152.5906 279.1565)" class="st0" cx="252.7" cy="43.2" rx="5.1" ry="5.1"/>
	<circle class="st0" cx="233.7" cy="43.2" r="5.1"/>
	<circle class="st0" cx="214.8" cy="43.2" r="5.1"/>
	<circle class="st0" cx="195.9" cy="43.2" r="5.1"/>
	<circle class="st0" cx="176.9" cy="43.2" r="5.1"/>
	<circle class="st0" cx="158" cy="43.2" r="5.1"/>
	<circle class="st0" cx="139.1" cy="43.2" r="5.1"/>
	<circle class="st0" cx="120.2" cy="43.2" r="5.1"/>
	<circle class="st0" cx="101.2" cy="43.2" r="5.1"/>
	<circle class="st0" cx="82.3" cy="43.2" r="5.1"/>
	<circle class="st0" cx="63.4" cy="43.2" r="5.1"/>
	<circle class="st0" cx="44.4" cy="43.2" r="5.1"/>
	<circle class="st0" cx="25.5" cy="43.2" r="5.1"/>
	<circle class="st0" cx="6.6" cy="43.2" r="5.1"/>
</g>
</svg>
