<?xml version="1.0" encoding="UTF-8"?><svg id="Camada_2" xmlns="http://www.w3.org/2000/svg" viewBox="0 0 287.58 47.11"><defs><style>.cls-1{fill:none;stroke:#fff;stroke-miterlimit:10;stroke-width:.5px;}</style></defs><g id="Layer_1"><circle class="cls-1" cx="282.21" cy="5.38" r="5.13"/><circle class="cls-1" cx="263.28" cy="5.38" r="5.13"/><circle class="cls-1" cx="244.35" cy="5.38" r="5.13"/><circle class="cls-1" cx="225.42" cy="5.38" r="5.13"/><circle class="cls-1" cx="206.49" cy="5.38" r="5.13"/><circle class="cls-1" cx="187.56" cy="5.38" r="5.13"/><circle class="cls-1" cx="168.64" cy="5.38" r="5.13"/><circle class="cls-1" cx="149.71" cy="5.38" r="5.13"/><circle class="cls-1" cx="130.78" cy="5.38" r="5.13"/><circle class="cls-1" cx="111.85" cy="5.38" r="5.13"/><circle class="cls-1" cx="92.92" cy="5.38" r="5.13"/><circle class="cls-1" cx="73.99" cy="5.38" r="5.13"/><circle class="cls-1" cx="55.06" cy="5.38" r="5.13"/><circle class="cls-1" cx="36.14" cy="5.38" r="5.13"/><circle class="cls-1" cx="271.95" cy="17.49" r="5.13"/><circle class="cls-1" cx="253.02" cy="17.49" r="5.13"/><circle class="cls-1" cx="234.1" cy="17.49" r="5.13"/><circle class="cls-1" cx="215.17" cy="17.49" r="5.13"/><circle class="cls-1" cx="196.24" cy="17.49" r="5.13"/><circle class="cls-1" cx="177.31" cy="17.49" r="5.13"/><circle class="cls-1" cx="158.38" cy="17.49" r="5.13"/><circle class="cls-1" cx="139.45" cy="17.49" r="5.13"/><circle class="cls-1" cx="120.53" cy="17.49" r="5.13"/><circle class="cls-1" cx="101.6" cy="17.49" r="5.13"/><circle class="cls-1" cx="82.67" cy="17.49" r="5.13"/><circle class="cls-1" cx="63.74" cy="17.49" r="5.13"/><circle class="cls-1" cx="44.81" cy="17.49" r="5.13"/><circle class="cls-1" cx="25.88" cy="17.49" r="5.13"/><circle class="cls-1" cx="261.7" cy="29.61" r="5.13"/><circle class="cls-1" cx="242.77" cy="29.61" r="5.13"/><circle class="cls-1" cx="223.84" cy="29.61" r="5.13"/><circle class="cls-1" cx="204.91" cy="29.61" r="5.13"/><circle class="cls-1" cx="185.99" cy="29.61" r="5.13"/><circle class="cls-1" cx="167.06" cy="29.61" r="5.13"/><circle class="cls-1" cx="148.13" cy="29.61" r="5.13"/><circle class="cls-1" cx="129.2" cy="29.61" r="5.13"/><circle class="cls-1" cx="110.27" cy="29.61" r="5.13"/><circle class="cls-1" cx="91.34" cy="29.61" r="5.13"/><circle class="cls-1" cx="72.42" cy="29.61" r="5.13"/><circle class="cls-1" cx="53.49" cy="29.61" r="5.13"/><circle class="cls-1" cx="34.56" cy="29.61" r="5.13"/><circle class="cls-1" cx="15.63" cy="29.61" r="5.13"/><circle class="cls-1" cx="251.45" cy="41.73" r="5.13"/><circle class="cls-1" cx="232.52" cy="41.73" r="5.13"/><circle class="cls-1" cx="213.59" cy="41.73" r="5.13"/><circle class="cls-1" cx="194.66" cy="41.73" r="5.13"/><circle class="cls-1" cx="175.73" cy="41.73" r="5.13"/><circle class="cls-1" cx="156.8" cy="41.73" r="5.13"/><circle class="cls-1" cx="137.88" cy="41.73" r="5.13"/><circle class="cls-1" cx="118.95" cy="41.73" r="5.13"/><circle class="cls-1" cx="100.02" cy="41.73" r="5.13"/><circle class="cls-1" cx="81.09" cy="41.73" r="5.13"/><circle class="cls-1" cx="62.16" cy="41.73" r="5.13"/><circle class="cls-1" cx="43.23" cy="41.73" r="5.13"/><circle class="cls-1" cx="24.31" cy="41.73" r="5.13"/><circle class="cls-1" cx="5.38" cy="41.73" r="5.13"/></g></svg>