<?xml version="1.0" encoding="UTF-8"?><svg id="Camada_2" xmlns="http://www.w3.org/2000/svg" viewBox="0 0 170.96 39.71"><defs><style>.cls-1{fill:none;stroke:#fff;stroke-miterlimit:10;}</style></defs><g id="Layer_1"><circle class="cls-1" cx="164.19" cy="13.28" r="6.27"/><circle class="cls-1" cx="141.04" cy="13.28" r="6.27"/><circle class="cls-1" cx="117.9" cy="13.28" r="6.27"/><circle class="cls-1" cx="94.76" cy="13.28" r="6.27"/><circle class="cls-1" cx="71.61" cy="13.28" r="6.27"/><circle class="cls-1" cx="147.31" cy="32.94" r="6.27"/><circle class="cls-1" cx="124.17" cy="32.94" r="6.27"/><circle class="cls-1" cx="101.02" cy="32.94" r="6.27"/><circle class="cls-1" cx="77.88" cy="32.94" r="6.27"/><circle class="cls-1" cx="54.74" cy="32.94" r="6.27"/><path class="cls-1" d="m23.1,36.46c1.67,0,3.34-.64,4.61-1.91l22.93-22.93c2.55-2.55,2.55-6.67,0-9.22-2.55-2.55-6.67-2.55-9.22,0l-18.32,18.32-11.48-11.48c-2.54-2.54-6.67-2.55-9.22,0-2.55,2.55-2.54,6.67,0,9.22l16.09,16.09c1.27,1.27,2.94,1.91,4.61,1.91Z"/></g></svg>