<?xml version="1.0" encoding="UTF-8"?><svg id="Camada_2" xmlns="http://www.w3.org/2000/svg" viewBox="0 0 14.22 18.13"><defs><style>.cls-1{fill:#fff;stroke-width:0px;}</style></defs><g id="Layer_1"><path class="cls-1" d="m7.11,1.28c-.1,0-.18-.08-.18-.18V.18c0-.1.08-.18.18-.18s.18.08.18.18v.91c0,.1-.08.18-.18.18Z"/><path class="cls-1" d="m11.36,3.04s-.09-.02-.13-.05c-.07-.07-.07-.19,0-.26l.64-.64c.07-.07.19-.07.26,0,.07.07.07.19,0,.26l-.64.64s-.08.05-.13.05Z"/><path class="cls-1" d="m2.21,12.19s-.09-.02-.13-.05c-.07-.07-.07-.19,0-.26l.64-.64c.07-.07.19-.07.26,0,.07.07.07.19,0,.26l-.64.64s-.08.05-.13.05Z"/><path class="cls-1" d="m14.03,7.29h-.91c-.1,0-.18-.08-.18-.18s.08-.18.18-.18h.91c.1,0,.18.08.18.18s-.08.18-.18.18Z"/><path class="cls-1" d="m1.1,7.29H.18c-.1,0-.18-.08-.18-.18s.08-.18.18-.18h.91c.1,0,.18.08.18.18s-.08.18-.18.18Z"/><path class="cls-1" d="m12,12.19s-.09-.02-.13-.05l-.64-.64c-.07-.07-.07-.19,0-.26.07-.07.19-.07.26,0l.64.64c.07.07.07.19,0,.26-.04.04-.08.05-.13.05Z"/><path class="cls-1" d="m2.86,3.04s-.09-.02-.13-.05l-.64-.64c-.07-.07-.07-.19,0-.26.07-.07.19-.07.26,0l.64.64c.07.07.07.19,0,.26-.04.04-.08.05-.13.05Z"/><path class="cls-1" d="m9.43,1.75s-.05,0-.07-.01c-.09-.04-.14-.15-.1-.24l.35-.84c.04-.09.15-.14.24-.1.09.04.14.15.1.24l-.35.84c-.03.07-.1.11-.17.11Z"/><path class="cls-1" d="m12.67,5.01c-.07,0-.14-.04-.17-.11-.04-.09,0-.2.1-.24l.84-.35c.09-.04.2,0,.24.1.04.09,0,.2-.1.24l-.84.35s-.05.01-.07.01Z"/><path class="cls-1" d="m.7,9.92c-.07,0-.14-.04-.17-.11-.04-.09,0-.2.1-.24l.84-.35c.09-.04.2,0,.24.1.04.09,0,.2-.1.24l-.84.35s-.05.01-.07.01Z"/><path class="cls-1" d="m13.49,9.97s-.05,0-.07-.01l-.84-.35c-.09-.04-.14-.15-.1-.24.04-.09.15-.14.24-.1l.84.35c.09.04.14.15.1.24-.03.07-.1.11-.17.11Z"/><path class="cls-1" d="m1.56,4.97s-.05,0-.07-.01l-.84-.35c-.09-.04-.14-.15-.1-.24.04-.09.15-.14.24-.1l.84.35c.09.04.14.15.1.24-.03.07-.1.11-.17.11Z"/><path class="cls-1" d="m4.83,1.73c-.07,0-.14-.04-.17-.11l-.35-.84c-.04-.09,0-.2.1-.24.09-.04.2,0,.24.1l.35.84c.04.09,0,.2-.1.24-.02,0-.05.01-.07.01Z"/><path class="cls-1" d="m8.72,15.88h-3.12c-.18,0-.32-.14-.32-.32h0c0-.18.14-.32.32-.32h3.12c.18,0,.32.14.32.32h0c0,.18-.14.32-.32.32Z"/><path class="cls-1" d="m8.72,16.88h-3.12c-.18,0-.32-.14-.32-.32h0c0-.18.14-.32.32-.32h3.12c.18,0,.32.14.32.32h0c0,.18-.14.32-.32.32Z"/><path class="cls-1" d="m6.41,17.26c-.08,0-.14.07-.12.15.08.41.44.72.87.72s.79-.31.87-.72c.01-.08-.04-.15-.12-.15h-1.49Z"/><path class="cls-1" d="m8.02,2.36c-.53-.1-1.1-.11-1.64-.02-2.3.37-3.96,2.33-3.96,4.66,0,1.73.69,2.79,1.35,3.82.61.95,1.18,1.84,1.29,3.25.03.43.4.77.83.77h2.5c.43,0,.8-.34.83-.77.11-1.41.68-2.3,1.29-3.25.66-1.03,1.35-2.1,1.35-3.82,0-2.27-1.62-4.23-3.85-4.64Zm-2.98,7.54c-.05.04-.12.06-.18.06-.09,0-.19-.04-.25-.13-1.71-2.34-.45-4.55-.39-4.64.09-.15.27-.2.42-.11.15.09.2.27.11.42-.05.08-1.1,1.95.36,3.96.1.14.07.33-.07.43Z"/></g></svg>