<?xml version="1.0" encoding="UTF-8"?><svg id="Camada_2" xmlns="http://www.w3.org/2000/svg" viewBox="0 0 16.4 14.54"><defs><style>.cls-1{fill:#fff;stroke-width:0px;}</style></defs><g id="Layer_1"><path class="cls-1" d="m16.34,7.69l-2.5-3.33c-.12-.16-.36-.16-.49,0l-2.59,3.33c-.16.2-.01.49.24.49h1.67c-.43,2.59-2.69,4.57-5.4,4.57-3.02,0-5.48-2.46-5.48-5.48S4.25,1.79,7.27,1.79c1.65,0,3.2.73,4.25,2.02.31.38.88.44,1.26.13.38-.31.44-.88.13-1.26-1.39-1.7-3.44-2.67-5.63-2.67C3.26,0,0,3.26,0,7.27s3.26,7.27,7.27,7.27c3.7,0,6.77-2.78,7.21-6.37h1.61c.25,0,.4-.29.24-.49Z"/></g></svg>