<?xml version="1.0" encoding="utf-8"?>
<!-- Generator: Adobe Illustrator 28.0.0, SVG Export Plug-In . SVG Version: 6.00 Build 0)  -->
<svg version="1.1" id="Camada_2_00000041985365280769821120000003212038959600278195_"
	 xmlns="http://www.w3.org/2000/svg" xmlns:xlink="http://www.w3.org/1999/xlink" x="0px" y="0px" viewBox="0 0 640 174"
	 style="enable-background:new 0 0 640 174;" xml:space="preserve">
<style type="text/css">
	.st0{opacity:0.8;fill:#004F90;enable-background:new    ;}
	.st1{fill:#FFFFFF;}
	.st2{fill:#D980D5;}
</style>
<g id="content">
	<path class="st0" d="M-0.2-0.1C-0.5,2.8,0,24.6,0,27.7v45.4C0,128.6,45.4,174,100.9,174h438.2C594.6,174,640,128.6,640,73.1V27.7
		c0-3,0.4-25.2,0.2-28.2L-0.2-0.1z"/>
	<path class="st1" d="M206.8,40.5h-37c-3,0-5.5,2.5-5.5,5.5v37c0,3,2.5,5.5,5.5,5.5h37c3,0,5.5-2.5,5.5-5.5V46
		C212.3,43,209.8,40.5,206.8,40.5z M204.8,70.8c-1.2,1.4-3.1,2.4-5.7,3.1c-2.6,0.7-6,1.1-10.1,1.1s-7.7-0.3-10.6-1
		c-2.9-0.7-5.1-1.8-6.6-3.3c-1.5-1.5-2.3-3.6-2.3-6.1s0.8-4.6,2.3-6.1c1.5-1.5,3.7-2.7,6.6-3.3c2.9-0.7,6.4-1,10.6-1
		s7.5,0.4,10.1,1.1s4.5,1.8,5.7,3.1c1.2,1.4,1.8,3,1.9,4.9h-8.8c-0.4-1-1.4-1.8-2.9-2.4s-3.4-0.9-5.9-0.9c-1.9,0-3.6,0.1-5.1,0.4
		c-1.4,0.3-2.6,0.8-3.4,1.4c-0.8,0.7-1.2,1.6-1.2,2.8s0.4,2.1,1.2,2.8c0.8,0.7,1.9,1.1,3.3,1.4c1.4,0.3,3.2,0.4,5.1,0.4
		c2.4,0,4.4-0.3,5.9-0.9c1.5-0.6,2.5-1.4,2.9-2.5h8.8C206.6,67.8,206,69.4,204.8,70.8L204.8,70.8z"/>
	<path class="st1" d="M300.5,40.5h-37c-3,0-5.5,2.5-5.5,5.5v37c0,3,2.5,5.5,5.5,5.5h37c3,0,5.5-2.5,5.5-5.5V46
		C306,43,303.5,40.5,300.5,40.5z M298.5,70.8c-1.2,1.4-3.1,2.4-5.7,3.1c-1.9,0.5-4.1,0.8-6.8,1v1.6c1.1,0.2,2,0.4,2.9,0.7
		c0.9,0.3,1.6,0.7,2.2,1.2c0.5,0.5,0.8,1.2,0.8,2c0,1.5-0.9,2.7-2.8,3.6c-1.8,0.9-4.5,1.3-7.9,1.3c-2.2,0-4-0.3-5.6-0.9
		c-1.5-0.6-2.7-1.3-3.5-2.3c-0.8-0.9-1.3-1.9-1.4-2.9h7c0.1,0.1,0.2,0.2,0.4,0.4s0.5,0.4,1,0.6s1,0.3,1.8,0.3s1.4-0.1,1.8-0.3
		c0.4-0.2,0.6-0.5,0.6-0.8c0-0.2-0.1-0.4-0.2-0.7c-0.2-0.2-0.5-0.4-1.1-0.7c-0.6-0.2-1.5-0.4-2.9-0.6v-2.5c-2.7-0.1-5-0.4-7.1-0.9
		c-2.9-0.7-5.1-1.8-6.6-3.3c-1.5-1.5-2.3-3.6-2.3-6.1s0.8-4.6,2.3-6.1c1.5-1.5,3.7-2.7,6.6-3.3c2.9-0.7,6.4-1,10.6-1
		s7.5,0.4,10.1,1.1c2.6,0.7,4.5,1.8,5.7,3.1c1.2,1.4,1.8,3,1.9,4.9h-8.8c-0.4-1-1.4-1.8-2.9-2.4s-3.5-0.9-5.9-0.9
		c-2,0-3.6,0.1-5.1,0.4s-2.6,0.8-3.4,1.4c-0.8,0.7-1.2,1.6-1.2,2.8s0.4,2.1,1.2,2.8c0.8,0.7,1.9,1.1,3.3,1.4
		c1.5,0.3,3.2,0.4,5.1,0.4c2.4,0,4.4-0.3,5.9-0.9c1.5-0.6,2.5-1.4,2.9-2.5h8.8C300.3,67.8,299.7,69.4,298.5,70.8L298.5,70.8z"/>
	<path class="st1" d="M339.7,61.9c-1-0.6-2.4-1-4.1-1.3c-1.7-0.2-3.6-0.4-5.6-0.4c-2.7,0-4.9,0.4-6.3,1.1c-1.5,0.7-2.2,1.8-2.2,3.2
		c0,0.9,0.3,1.7,1,2.4s1.6,1.1,2.9,1.4c1.3,0.3,2.8,0.5,4.7,0.5c2,0,3.9-0.1,5.6-0.4s3.1-0.7,4.1-1.3c1-0.6,1.5-1.5,1.5-2.6
		S340.7,62.5,339.7,61.9L339.7,61.9z"/>
	<path class="st1" d="M350,40.5h-37c-3,0-5.5,2.5-5.5,5.5v37c0,3,2.5,5.5,5.5,5.5h37c3,0,5.5-2.5,5.5-5.5V46
		C355.6,43,353.1,40.5,350,40.5z M350.9,74.4h-9.1c-0.2-1.2-0.3-2.4-0.4-3.6c-0.1-0.8-0.1-1.7-0.1-2.6c-0.1,0.2-0.2,0.4-0.3,0.6
		c-0.7,1.3-1.8,2.4-3.1,3.3c-1.4,0.9-3,1.6-4.9,2.1c-1.9,0.5-4.1,0.7-6.5,0.7c-2.9,0-5.5-0.4-7.7-1.2c-2.2-0.8-4-2-5.3-3.6
		c-1.3-1.6-2-3.4-2-5.6s0.6-4.2,2-5.8c1.3-1.5,3.1-2.7,5.3-3.5c2.2-0.8,4.8-1.2,7.7-1.2c3.2,0,6,0.4,8.3,1.3
		c2.3,0.9,4.1,2.1,5.4,3.7c0.5,0.5,0.8,1.1,1.1,1.8v-6.1h9.6L350.9,74.4L350.9,74.4z"/>
	<path class="st2" d="M247.4,43.3c-11.5-6.8-26.4-2.9-33.1,8.6c-6.1,10.3-3.6,23.3,5.3,30.8l-1.2,7.4c-0.2,1.3,1.2,2.1,2.3,1.3
		l5.9-4.7c10.8,4.1,23.4-0.1,29.5-10.4C262.8,64.9,258.9,50,247.4,43.3L247.4,43.3z"/>
	<path class="st1" d="M243.2,56.3v5.2c-0.2-0.5-0.5-1-0.9-1.5c-1.1-1.3-2.6-2.3-4.5-3.1c-2-0.7-4.3-1.1-7-1.1c-2.4,0-4.6,0.3-6.5,1
		c-1.9,0.7-3.4,1.6-4.5,2.9c-1.1,1.3-1.6,2.9-1.6,4.9s0.5,3.4,1.6,4.7c1.1,1.3,2.6,2.3,4.5,3c1.9,0.7,4,1,6.5,1c2,0,3.8-0.2,5.4-0.6
		c1.6-0.4,3-1,4.1-1.8s2-1.7,2.6-2.8c0.1-0.2,0.2-0.3,0.2-0.5c0,0.8,0.1,1.6,0.1,2.2c0.1,1,0.2,2,0.4,3h7.6V56.3L243.2,56.3
		L243.2,56.3z"/>
	<path class="st1" d="M371.4,64.6h18.1v5.3h-18.1V64.6z"/>
	<path class="st1" d="M193.6,101.4c5.3,0,9.6,1.1,13,3.3s5,5.3,5,9.2s-1.6,7.1-4.9,9.3c-3.3,2.2-7.6,3.2-13,3.2
		c-4.5,0-8.3-0.7-11.4-2.2c-3.1-1.4-5.2-3.4-6.4-5.9v17h-11.6v-33.2h10.9l0.6,7.7c1.1-2.6,3.2-4.6,6.4-6.1
		C185.3,102.2,189.1,101.5,193.6,101.4L193.6,101.4z M189.3,119.1c6.9,0,10.3-1.7,10.3-5.2c0-1.7-0.9-3-2.7-3.8s-4.3-1.3-7.6-1.3
		c-9,0-13.5,1.7-13.5,5.2S180.3,119.1,189.3,119.1z"/>
	<path class="st1" d="M250.7,102.1h11.5v23.6h-10.9c-0.4-1.9-0.6-4.4-0.7-7.4c-1.2,2.5-3.3,4.5-6.4,5.9c-3.1,1.4-6.9,2.2-11.4,2.2
		c-5.3,0-9.6-1.1-13-3.3s-5-5.3-5-9.1c0-2.7,0.8-5,2.4-6.9c1.6-1.9,3.7-3.3,6.4-4.2c2.7-0.9,5.7-1.4,9.2-1.4c3,0,5.7,0.3,8.1,1
		c2.4,0.7,4.4,1.6,6.1,2.8c1.6,1.2,2.8,2.6,3.6,4.3V102.1L250.7,102.1z M237.2,119.1c9,0,13.5-1.7,13.5-5.2s-4.5-5.2-13.5-5.2
		c-3.3,0-5.9,0.4-7.6,1.3s-2.6,2.2-2.6,3.8c0,1.1,0.4,2.1,1.2,2.8s2,1.3,3.5,1.7C233.2,118.9,235.1,119.1,237.2,119.1L237.2,119.1z"
		/>
	<path class="st1" d="M267.3,92.5h11.5v33.2h-11.5V92.5z"/>
	<path class="st1" d="M319.2,102.1h11.5v23.6h-10.9c-0.4-1.9-0.6-4.4-0.7-7.4c-1.2,2.5-3.3,4.5-6.4,5.9c-3.1,1.4-6.9,2.2-11.4,2.2
		c-5.3,0-9.6-1.1-13-3.3s-5-5.3-5-9.1c0-2.7,0.8-5,2.4-6.9c1.6-1.9,3.7-3.3,6.4-4.2c2.7-0.9,5.7-1.4,9.2-1.4c3,0,5.7,0.3,8.1,1
		c2.4,0.7,4.5,1.6,6.1,2.8c1.6,1.2,2.8,2.6,3.6,4.3L319.2,102.1L319.2,102.1z M305.7,119.1c9,0,13.5-1.7,13.5-5.2s-4.5-5.2-13.5-5.2
		c-3.3,0-5.9,0.4-7.6,1.3c-1.8,0.9-2.6,2.2-2.6,3.8c0,1.1,0.4,2.1,1.2,2.8s2,1.3,3.5,1.7C301.7,118.9,303.5,119.1,305.7,119.1
		L305.7,119.1z"/>
	<path class="st1" d="M364.1,102.1h12.8l-16.8,23.6h-10.9l-16-23.6h12.7l8.9,14.8L364.1,102.1L364.1,102.1z"/>
	<path class="st1" d="M403.2,101.4v9.6c-2.1,0-4.1,0.2-6,0.7c-1.9,0.4-3.3,0.8-4.1,1.2c-0.9,0.4-1.6,0.8-2.3,1.3v11.5h-11.5v-23.6
		h11.5v8.1c0.4-1,1-2,1.7-3c0.7-1,1.5-1.9,2.5-2.8c1-0.9,2.2-1.7,3.7-2.2S401.6,101.4,403.2,101.4L403.2,101.4z"/>
	<path class="st1" d="M441.7,102.1h11.5v23.6h-10.9c-0.4-1.9-0.6-4.4-0.7-7.4c-1.2,2.5-3.3,4.5-6.4,5.9c-3.1,1.4-6.9,2.2-11.4,2.2
		c-5.3,0-9.6-1.1-13-3.3s-5-5.3-5-9.1c0-2.7,0.8-5,2.4-6.9c1.6-1.9,3.7-3.3,6.4-4.2c2.7-0.9,5.7-1.4,9.2-1.4c3,0,5.7,0.3,8.1,1
		c2.4,0.7,4.5,1.6,6.1,2.8c1.6,1.2,2.8,2.6,3.6,4.3L441.7,102.1L441.7,102.1z M428.2,119.1c9,0,13.5-1.7,13.5-5.2s-4.5-5.2-13.5-5.2
		c-3.3,0-5.9,0.4-7.6,1.3c-1.8,0.9-2.6,2.2-2.6,3.8c0,1.1,0.4,2.1,1.2,2.8s2,1.3,3.5,1.7C424.1,118.9,426,119.1,428.2,119.1
		L428.2,119.1z"/>
	<path class="st1" d="M457.3,117.2h10.6c0.5,0.8,1.3,1.3,2.4,1.6c1.2,0.2,3,0.4,5.6,0.4c0.9,0,1.7,0,2.4-0.1c0.7,0,1.2-0.1,1.7-0.2
		c0.5-0.1,0.8-0.2,1.1-0.3c0.3-0.1,0.5-0.2,0.6-0.4c0.1-0.1,0.2-0.3,0.3-0.4s0.1-0.3,0.1-0.5c0-0.8-0.8-1.3-2.3-1.6
		c-1.5-0.3-4.2-0.4-7.9-0.4c-2,0-3.7-0.1-5.1-0.1c-1.4-0.1-2.8-0.3-4.1-0.5s-2.3-0.6-3.1-1.1c-0.8-0.4-1.4-1-1.9-1.7
		c-0.5-0.7-0.7-1.6-0.7-2.6c0-5.3,6.3-7.9,18.9-7.9c5.8,0,10.1,0.8,13,2.6c2.9,1.7,4.4,3.9,4.3,6.6H483c-0.4-0.8-1-1.3-2-1.6
		c-1-0.3-2.6-0.4-5-0.4s-4.3,0.1-5.3,0.4c-1,0.3-1.6,0.8-1.6,1.5c0,0.5,0.2,0.9,0.8,1.2s1.5,0.5,3,0.7c1.5,0.2,3.6,0.2,6.5,0.2h2.8
		c0.7,0,1.6,0,2.6,0.1c1.1,0.1,1.9,0.2,2.6,0.3c0.7,0.1,1.4,0.3,2.2,0.5c0.8,0.2,1.5,0.4,2,0.8c0.5,0.3,1,0.7,1.4,1.1
		c0.5,0.4,0.8,0.9,1,1.5c0.2,0.6,0.3,1.3,0.3,2c0,5.1-6.1,7.7-18.2,7.7c-3.1,0-5.8-0.2-8.2-0.7c-2.4-0.4-4.2-1-5.5-1.6
		c-1.3-0.7-2.4-1.4-3.2-2.3c-0.8-0.8-1.3-1.7-1.5-2.4C457.3,118.7,457.2,118,457.3,117.2L457.3,117.2z"/>
</g>
</svg>
