<?xml version="1.0" encoding="UTF-8"?><svg id="Camada_2" xmlns="http://www.w3.org/2000/svg" viewBox="0 0 299.77 81.51"><defs><style>.cls-1{fill:#009ddc;}.cls-1,.cls-2,.cls-3,.cls-4{stroke-width:0px;}.cls-2{fill:#004f90;opacity:.8;}.cls-3{fill:#fff;}.cls-4{fill:#be9df0;}</style></defs><g id="Layer_1"><path class="cls-2" d="m.19,0c-.13,1.4-.19,11.55-.19,12.97v21.27c0,25.99,21.27,47.26,47.26,47.26h205.24c25.99,0,47.26-21.27,47.26-47.26V12.97c0-1.43-.07-11.58-.19-12.97H.19Z"/><path class="cls-3" d="m79.18,48.73c-.42-.73-.99-1.3-1.72-1.7-.73-.4-1.58-.68-2.56-.84-.98-.16-2.02-.23-3.14-.23h-15.5v14.29h5.58v-3.68h9.91c1.12,0,2.16-.05,3.14-.16.97-.1,1.83-.32,2.56-.65.73-.33,1.3-.83,1.72-1.5.42-.67.63-1.58.63-2.72s-.21-2.08-.63-2.81Zm-5.41,3.72c-.31.14-.68.21-1.13.21h-10.79v-2.23h10.79c.45,0,.82.07,1.13.2.3.13.46.44.46.92s-.15.76-.46.9Z"/><path class="cls-3" d="m97.87,49.32v3.4c-.16-.34-.36-.67-.61-.98-.71-.87-1.71-1.55-3.01-2.03-1.3-.48-2.85-.73-4.63-.73-1.61,0-3.04.22-4.29.65-1.25.43-2.24,1.08-2.96,1.94-.72.86-1.08,1.94-1.08,3.22s.36,2.26,1.08,3.13c.72.86,1.71,1.52,2.96,1.98,1.25.45,2.68.68,4.29.68,1.34,0,2.55-.14,3.62-.41,1.07-.28,1.99-.67,2.75-1.18.76-.51,1.34-1.12,1.74-1.83.06-.11.11-.23.17-.34.01.54.03,1.03.07,1.47.05.64.13,1.3.23,1.99h5.05v-10.94h-5.36Zm-.86,6.92c-.57.34-1.33.58-2.28.73-.95.14-1.98.21-3.11.21-1.01,0-1.88-.09-2.59-.27-.71-.18-1.26-.45-1.63-.8-.37-.36-.56-.8-.56-1.32,0-.8.42-1.4,1.25-1.8.83-.39,2.01-.59,3.53-.59,1.13,0,2.17.07,3.11.2.95.13,1.7.37,2.28.71.57.34.86.83.86,1.47s-.29,1.11-.86,1.45Z"/><path class="cls-3" d="m105.04,44.85h5.36v15.41h-5.36v-15.41Z"/><path class="cls-3" d="m128.57,49.32v3.4c-.16-.34-.36-.67-.61-.98-.71-.87-1.71-1.55-3.01-2.03-1.3-.48-2.85-.73-4.63-.73-1.61,0-3.04.22-4.29.65-1.25.43-2.24,1.08-2.96,1.94-.72.86-1.08,1.94-1.08,3.22s.36,2.26,1.08,3.13c.72.86,1.71,1.52,2.96,1.98,1.25.45,2.68.68,4.29.68,1.34,0,2.55-.14,3.62-.41,1.07-.28,1.99-.67,2.75-1.18.76-.51,1.34-1.12,1.74-1.83.06-.11.11-.23.17-.34.01.54.03,1.03.07,1.47.05.64.13,1.3.23,1.99h5.05v-10.94h-5.36Zm-.86,6.92c-.57.34-1.33.58-2.28.73-.95.14-1.98.21-3.11.21-1.01,0-1.88-.09-2.59-.27-.71-.18-1.26-.45-1.63-.8-.37-.36-.56-.8-.56-1.32,0-.8.42-1.4,1.25-1.8.83-.39,2.01-.59,3.53-.59,1.13,0,2.17.07,3.11.2.95.13,1.7.37,2.28.71.57.34.86.83.86,1.47s-.29,1.11-.86,1.45Z"/><polygon class="cls-3" points="148.87 49.32 144.53 56.16 140.41 49.32 134.51 49.32 141.95 60.26 146.99 60.26 154.79 49.32 148.87 49.32"/><path class="cls-3" d="m164.44,49.35c-.62.25-1.16.57-1.64.96-.48.39-.88.82-1.21,1.27-.33.45-.59.89-.78,1.32-.03.07-.06.14-.09.21v-3.79h-5.36v10.94h5.36v-5.35c.27-.18.62-.37,1.05-.56.57-.25,1.25-.46,2.05-.64.8-.18,1.69-.27,2.66-.27v-4.47c-.74,0-1.43.12-2.04.37Z"/><path class="cls-3" d="m183.77,49.32v3.4c-.16-.34-.36-.67-.61-.98-.71-.87-1.71-1.55-3.01-2.03-1.3-.48-2.85-.73-4.63-.73-1.61,0-3.04.22-4.29.65-1.25.43-2.24,1.08-2.96,1.94-.72.86-1.08,1.94-1.08,3.22s.36,2.26,1.08,3.13c.72.86,1.71,1.52,2.96,1.98,1.25.45,2.68.68,4.29.68,1.34,0,2.55-.14,3.62-.41,1.07-.28,1.99-.67,2.75-1.18.76-.51,1.34-1.12,1.74-1.83.06-.11.11-.23.17-.34.01.54.03,1.03.07,1.47.05.64.13,1.3.23,1.99h5.05v-10.94h-5.36Zm-.86,6.92c-.57.34-1.33.58-2.28.73-.95.14-1.98.21-3.11.21-1.01,0-1.88-.09-2.59-.27-.71-.18-1.26-.45-1.63-.8-.37-.36-.56-.8-.56-1.32,0-.8.42-1.4,1.25-1.8.83-.39,2.01-.59,3.53-.59,1.13,0,2.17.07,3.11.2.95.13,1.7.37,2.28.71.57.34.86.83.86,1.47s-.29,1.11-.86,1.45Z"/><path class="cls-3" d="m190.49,56.33h4.93c.21.39.61.66,1.19.8.59.15,1.43.22,2.53.22.85,0,1.48-.04,1.89-.13.41-.09.68-.21.8-.36.13-.15.19-.3.19-.47,0-.25-.14-.43-.41-.52-.28-.1-.74-.16-1.4-.18-.66-.02-1.56-.03-2.7-.03-1.09,0-2.06-.05-2.91-.15-.86-.1-1.58-.25-2.18-.47-.6-.22-1.05-.52-1.36-.9-.31-.39-.47-.87-.47-1.45,0-.71.23-1.31.69-1.8.46-.48,1.09-.86,1.88-1.14.79-.28,1.7-.47,2.74-.59,1.03-.12,2.12-.18,3.25-.18,1.88,0,3.41.19,4.6.57,1.19.38,2.07.89,2.63,1.53.57.64.84,1.36.83,2.17h-4.8c-.16-.39-.47-.65-.93-.8-.45-.15-1.23-.22-2.33-.22-1.04,0-1.8.08-2.27.23-.47.16-.7.41-.7.75,0,.22.12.39.35.5.23.11.67.19,1.32.23.65.04,1.6.07,2.85.07.86,0,1.71.03,2.53.09.83.06,1.57.19,2.23.38.66.19,1.19.49,1.57.89.39.4.58.95.58,1.65,0,.85-.35,1.54-1.04,2.07-.69.53-1.67.91-2.94,1.15-1.27.24-2.76.36-4.49.36-1.5,0-2.77-.1-3.81-.29-1.03-.19-1.88-.45-2.53-.77-.66-.32-1.16-.67-1.51-1.05-.35-.38-.58-.76-.69-1.14s-.15-.72-.12-1.02Z"/><path class="cls-4" d="m139.31,22.93h-17.33c-1.42,0-2.58,1.16-2.58,2.58v17.33c0,1.42,1.16,2.58,2.58,2.58h17.33c1.42,0,2.58-1.16,2.58-2.58v-17.33c0-1.42-1.16-2.58-2.58-2.58Zm-.92,14.16c-.56.64-1.45,1.13-2.67,1.47-1.22.34-2.8.51-4.74.51s-3.6-.16-4.96-.47c-1.36-.31-2.39-.83-3.1-1.54-.71-.71-1.06-1.67-1.06-2.86s.35-2.15,1.06-2.87c.71-.72,1.74-1.24,3.1-1.56,1.36-.32,3.01-.48,4.96-.48s3.52.17,4.72.51,2.09.83,2.65,1.47c.56.64.85,1.4.87,2.29h-4.14c-.2-.49-.65-.87-1.35-1.14-.7-.27-1.62-.4-2.75-.4-.92,0-1.71.07-2.39.2-.68.13-1.2.35-1.57.67-.37.31-.55.75-.55,1.32s.18.98.55,1.3c.36.31.88.53,1.56.66.68.13,1.48.19,2.41.19,1.13,0,2.05-.13,2.76-.4.71-.27,1.16-.66,1.36-1.16h4.14c0,.9-.28,1.67-.85,2.31Z"/><path class="cls-4" d="m183.21,22.93h-17.33c-1.42,0-2.58,1.16-2.58,2.58v17.33c0,1.42,1.16,2.58,2.58,2.58h17.33c1.42,0,2.58-1.16,2.58-2.58v-17.33c0-1.42-1.16-2.58-2.58-2.58Zm-.92,14.16c-.56.64-1.45,1.13-2.67,1.47-.87.24-1.93.4-3.18.47v.76c.5.08.95.19,1.35.31.43.13.77.31,1.02.55.26.23.39.54.39.93,0,.69-.43,1.24-1.29,1.66-.86.42-2.08.63-3.68.63-1.03,0-1.9-.13-2.6-.4-.71-.27-1.25-.62-1.63-1.06-.38-.44-.6-.9-.66-1.37h3.27s.1.1.2.2c.09.09.24.18.45.26.21.08.49.12.86.12s.64-.05.82-.14c.18-.09.27-.22.27-.39,0-.1-.04-.2-.11-.31-.08-.11-.25-.21-.53-.31-.28-.1-.72-.19-1.34-.26v-1.17c-1.25-.07-2.36-.21-3.32-.43-1.36-.31-2.39-.83-3.1-1.54-.71-.71-1.06-1.67-1.06-2.86s.35-2.15,1.06-2.87c.71-.72,1.74-1.24,3.1-1.56,1.36-.32,3.01-.48,4.96-.48s3.52.17,4.72.51c1.2.34,2.09.83,2.65,1.47.56.64.85,1.4.87,2.29h-4.14c-.2-.49-.65-.87-1.35-1.14-.7-.27-1.62-.4-2.75-.4-.92,0-1.71.07-2.39.2-.68.13-1.2.35-1.57.67-.37.31-.55.75-.55,1.32s.18.98.55,1.3c.36.31.88.53,1.56.66.68.13,1.48.19,2.41.19,1.13,0,2.05-.13,2.76-.4.71-.27,1.16-.66,1.36-1.16h4.14c0,.9-.28,1.67-.85,2.31Z"/><path class="cls-4" d="m201.55,32.94c-.48-.29-1.12-.49-1.92-.6-.8-.11-1.67-.17-2.62-.17-1.28,0-2.27.17-2.97.5-.7.33-1.05.84-1.05,1.51,0,.44.16.81.47,1.11.31.3.77.53,1.37.68.6.15,1.33.23,2.18.23.95,0,1.83-.06,2.62-.18.8-.12,1.44-.32,1.92-.61.48-.29.72-.7.72-1.22s-.24-.95-.72-1.24Z"/><path class="cls-4" d="m206.4,22.93h-17.33c-1.42,0-2.58,1.16-2.58,2.58v17.33c0,1.42,1.16,2.58,2.58,2.58h17.33c1.42,0,2.58-1.16,2.58-2.58v-17.33c0-1.42-1.16-2.58-2.58-2.58Zm.38,15.86h-4.25c-.09-.58-.15-1.13-.2-1.67-.03-.37-.05-.78-.06-1.24-.04.1-.09.19-.14.29-.34.6-.83,1.11-1.47,1.54-.64.43-1.41.76-2.31,1-.9.23-1.92.35-3.05.35-1.35,0-2.56-.19-3.61-.57-1.05-.38-1.88-.94-2.49-1.66-.61-.73-.91-1.6-.91-2.63s.3-1.98.91-2.71c.61-.73,1.44-1.27,2.49-1.64,1.05-.36,2.26-.55,3.61-.55,1.5,0,2.81.2,3.9.61,1.1.41,1.94.98,2.54,1.71.21.26.38.53.52.82v-2.86h4.51v9.22Z"/><path class="cls-1" d="m158.32,24.22c-5.39-3.16-12.34-1.35-15.5,4.04-2.83,4.83-1.66,10.92,2.5,14.41l-.56,3.47c-.1.59.59.99,1.06.62l2.76-2.19c5.07,1.93,10.96-.02,13.79-4.86,3.16-5.39,1.35-12.34-4.04-15.5Z"/><path class="cls-3" d="m156.36,30.31v2.43c-.12-.25-.25-.49-.43-.72-.5-.61-1.21-1.09-2.13-1.43-.92-.34-2.01-.51-3.27-.51-1.14,0-2.14.15-3.03.46-.88.31-1.58.76-2.09,1.37-.51.61-.76,1.37-.76,2.27s.25,1.6.76,2.21c.51.61,1.21,1.07,2.09,1.4.88.32,1.89.48,3.03.48.95,0,1.8-.1,2.55-.29.76-.19,1.4-.47,1.94-.84.54-.36.95-.79,1.23-1.29.04-.08.08-.16.12-.24,0,.38.02.73.05,1.04.04.45.09.92.17,1.4h3.56v-7.73h-3.78Z"/></g></svg>