<?xml version="1.0" encoding="UTF-8"?><svg id="Camada_2" xmlns="http://www.w3.org/2000/svg" viewBox="0 0 531.88 144.63"><defs><style>.cls-1{fill:#009ddc;}.cls-1,.cls-2,.cls-3,.cls-4{stroke-width:0px;}.cls-2{fill:#004f90;opacity:.8;}.cls-3{fill:#fff;}.cls-4{fill:#be9df0;}</style></defs><g id="Layer_1"><path class="cls-2" d="m.34,0c-.22,2.48-.34,20.49-.34,23.02v37.75c0,46.12,37.74,83.86,83.86,83.86h364.16c46.12,0,83.86-37.74,83.86-83.86V23.02c0-2.53-.12-20.54-.34-23.02H.34Z"/><path class="cls-3" d="m140.49,86.47c-.74-1.29-1.76-2.3-3.05-3.01-1.29-.71-2.81-1.21-4.54-1.49-1.73-.28-3.59-.42-5.57-.42h-27.5v25.36h9.9v-6.54h17.59c1.98,0,3.84-.09,5.57-.28,1.73-.18,3.24-.57,4.54-1.15,1.29-.58,2.31-1.47,3.05-2.65.74-1.19,1.11-2.8,1.11-4.83s-.37-3.7-1.11-4.99Zm-9.61,6.6c-.54.25-1.21.38-2,.38h-19.14v-3.96h19.14c.79,0,1.46.12,2,.36.54.24.81.78.81,1.62s-.27,1.35-.81,1.6Z"/><path class="cls-3" d="m173.65,87.5v6.03c-.29-.61-.65-1.19-1.09-1.73-1.26-1.55-3.04-2.75-5.35-3.61-2.31-.86-5.05-1.29-8.22-1.29-2.85,0-5.39.38-7.61,1.15-2.22.77-3.97,1.92-5.25,3.45-1.28,1.53-1.92,3.43-1.92,5.7s.64,4.02,1.92,5.55c1.28,1.53,3.03,2.7,5.25,3.51,2.22.81,4.75,1.21,7.61,1.21,2.38,0,4.52-.24,6.42-.73,1.9-.49,3.53-1.19,4.87-2.1,1.35-.91,2.38-1.99,3.09-3.25.11-.2.2-.4.29-.6.02.96.06,1.83.12,2.61.09,1.14.23,2.31.42,3.53h8.95v-19.41h-9.51Zm-1.53,12.28c-1.02.61-2.36,1.04-4.04,1.29-1.68.25-3.52.38-5.53.38-1.8,0-3.33-.16-4.6-.48-1.27-.32-2.23-.79-2.89-1.43-.66-.63-.99-1.41-.99-2.34,0-1.43.74-2.49,2.22-3.19,1.48-.7,3.57-1.05,6.26-1.05,2.01,0,3.85.12,5.53.36,1.68.24,3.02.66,4.04,1.27,1.02.61,1.53,1.48,1.53,2.61s-.51,1.97-1.53,2.58Z"/><path class="cls-3" d="m186.37,79.58h9.51v27.34h-9.51v-27.34Z"/><path class="cls-3" d="m228.13,87.5v6.03c-.29-.61-.65-1.19-1.09-1.73-1.26-1.55-3.04-2.75-5.35-3.61-2.31-.86-5.05-1.29-8.22-1.29-2.85,0-5.39.38-7.61,1.15-2.22.77-3.97,1.92-5.25,3.45-1.28,1.53-1.92,3.43-1.92,5.7s.64,4.02,1.92,5.55c1.28,1.53,3.03,2.7,5.25,3.51,2.22.81,4.75,1.21,7.61,1.21,2.38,0,4.52-.24,6.42-.73,1.9-.49,3.53-1.19,4.87-2.1,1.35-.91,2.38-1.99,3.09-3.25.11-.2.2-.4.29-.6.02.96.06,1.83.12,2.61.09,1.14.23,2.31.42,3.53h8.95v-19.41h-9.51Zm-1.53,12.28c-1.02.61-2.36,1.04-4.04,1.29-1.68.25-3.52.38-5.53.38-1.8,0-3.33-.16-4.6-.48-1.27-.32-2.23-.79-2.89-1.43-.66-.63-.99-1.41-.99-2.34,0-1.43.74-2.49,2.22-3.19,1.48-.7,3.57-1.05,6.26-1.05,2.01,0,3.85.12,5.53.36,1.68.24,3.02.66,4.04,1.27,1.02.61,1.53,1.48,1.53,2.61s-.51,1.97-1.53,2.58Z"/><polygon class="cls-3" points="264.14 87.5 256.45 99.65 249.13 87.5 238.67 87.5 251.86 106.91 260.82 106.91 274.64 87.5 264.14 87.5"/><path class="cls-3" d="m291.78,87.56c-1.1.44-2.07,1-2.91,1.7-.85.7-1.56,1.45-2.14,2.26-.58.81-1.04,1.58-1.39,2.34-.06.13-.11.25-.16.37v-6.73h-9.51v19.41h9.51v-9.49c.47-.33,1.09-.66,1.86-.99,1-.44,2.22-.81,3.64-1.13,1.43-.32,3-.48,4.71-.48v-7.92c-1.32,0-2.53.22-3.63.65Z"/><path class="cls-3" d="m326.07,87.5v6.03c-.29-.61-.65-1.19-1.09-1.73-1.26-1.55-3.04-2.75-5.35-3.61-2.31-.86-5.05-1.29-8.22-1.29-2.85,0-5.39.38-7.61,1.15-2.22.77-3.97,1.92-5.25,3.45-1.28,1.53-1.92,3.43-1.92,5.7s.64,4.02,1.92,5.55c1.28,1.53,3.03,2.7,5.25,3.51,2.22.81,4.75,1.21,7.61,1.21,2.38,0,4.52-.24,6.42-.73,1.9-.49,3.53-1.19,4.87-2.1,1.35-.91,2.38-1.99,3.09-3.25.11-.2.2-.4.29-.6.02.96.06,1.83.12,2.61.09,1.14.23,2.31.42,3.53h8.95v-19.41h-9.51Zm-1.53,12.28c-1.02.61-2.36,1.04-4.04,1.29-1.68.25-3.52.38-5.53.38-1.8,0-3.33-.16-4.6-.48-1.27-.32-2.23-.79-2.89-1.43-.66-.63-.99-1.41-.99-2.34,0-1.43.74-2.49,2.22-3.19,1.48-.7,3.57-1.05,6.26-1.05,2.01,0,3.85.12,5.53.36,1.68.24,3.02.66,4.04,1.27,1.02.61,1.53,1.48,1.53,2.61s-.51,1.97-1.53,2.58Z"/><path class="cls-3" d="m337.99,99.94h8.76c.37.69,1.08,1.16,2.12,1.43,1.04.26,2.54.4,4.5.4,1.51,0,2.62-.08,3.35-.24.73-.16,1.2-.37,1.43-.63.22-.26.34-.54.34-.83,0-.45-.24-.76-.73-.93-.49-.17-1.31-.28-2.48-.32-1.16-.04-2.76-.06-4.79-.06-1.93,0-3.65-.09-5.17-.26-1.52-.17-2.81-.45-3.86-.83-1.06-.38-1.86-.92-2.42-1.6-.55-.69-.83-1.54-.83-2.58,0-1.27.41-2.33,1.23-3.19.82-.86,1.93-1.53,3.33-2.02,1.4-.49,3.02-.84,4.85-1.05,1.84-.21,3.76-.32,5.76-.32,3.33,0,6.05.34,8.16,1.01,2.11.67,3.67,1.58,4.67,2.71,1,1.14,1.49,2.42,1.47,3.84h-8.52c-.29-.69-.84-1.16-1.64-1.43-.81-.26-2.19-.4-4.14-.4-1.85,0-3.19.14-4.02.42-.83.28-1.25.72-1.25,1.33,0,.4.2.69.61.89.41.2,1.19.34,2.34.42,1.15.08,2.83.12,5.05.12,1.53,0,3.03.05,4.5.16,1.47.11,2.79.33,3.96.67,1.17.34,2.11.87,2.79,1.58.69.71,1.03,1.69,1.03,2.93,0,1.51-.61,2.73-1.84,3.66-1.23.94-2.97,1.62-5.21,2.04-2.25.42-4.9.63-7.96.63-2.67,0-4.92-.17-6.75-.51-1.84-.34-3.33-.8-4.5-1.37-1.16-.57-2.05-1.19-2.67-1.86-.62-.67-1.03-1.35-1.23-2.02s-.27-1.27-.22-1.8Z"/><path class="cls-4" d="m247.18,40.69h-30.76c-2.52,0-4.58,2.06-4.58,4.58v30.76c0,2.52,2.06,4.58,4.58,4.58h30.76c2.52,0,4.58-2.06,4.58-4.58v-30.76c0-2.52-2.06-4.58-4.58-4.58Zm-1.64,25.13c-1,1.13-2.58,2-4.74,2.6-2.16.6-4.96.9-8.41.9s-6.38-.28-8.79-.83c-2.41-.56-4.25-1.47-5.51-2.74-1.26-1.27-1.89-2.96-1.89-5.07s.63-3.81,1.89-5.09c1.26-1.28,3.09-2.2,5.51-2.77,2.41-.57,5.34-.85,8.79-.85s6.24.3,8.38.9,3.7,1.47,4.71,2.6c1,1.13,1.51,2.49,1.53,4.07h-7.34c-.36-.87-1.16-1.54-2.4-2.02-1.25-.48-2.87-.72-4.87-.72-1.62,0-3.04.12-4.24.35-1.2.23-2.13.63-2.79,1.18-.66.56-.98,1.33-.98,2.34s.32,1.75.97,2.3c.64.56,1.57.95,2.77,1.17,1.2.22,2.62.33,4.27.33,2,0,3.63-.24,4.89-.72,1.26-.48,2.06-1.16,2.42-2.05h7.34c0,1.6-.5,2.97-1.5,4.1Z"/><path class="cls-4" d="m325.06,40.69h-30.76c-2.52,0-4.58,2.06-4.58,4.58v30.76c0,2.52,2.06,4.58,4.58,4.58h30.76c2.52,0,4.58-2.06,4.58-4.58v-30.76c0-2.52-2.06-4.58-4.58-4.58Zm-1.64,25.13c-1,1.13-2.58,2-4.74,2.6-1.55.43-3.43.7-5.64.83v1.34c.89.15,1.69.33,2.4.55.76.23,1.36.56,1.82.97.46.41.68.96.68,1.65,0,1.22-.76,2.21-2.29,2.95-1.52.75-3.7,1.12-6.52,1.12-1.82,0-3.37-.24-4.62-.72-1.26-.48-2.22-1.11-2.89-1.89-.67-.78-1.06-1.59-1.17-2.44h5.81c.07.07.18.18.35.35.17.17.43.32.8.47.37.14.87.22,1.52.22s1.13-.08,1.45-.25c.32-.17.48-.4.48-.68,0-.18-.07-.36-.2-.55-.13-.19-.45-.37-.93-.55-.49-.18-1.28-.33-2.37-.47v-2.08c-2.22-.12-4.19-.37-5.89-.76-2.41-.56-4.25-1.47-5.51-2.74-1.26-1.27-1.89-2.96-1.89-5.07s.63-3.81,1.89-5.09c1.26-1.28,3.09-2.2,5.51-2.77,2.41-.57,5.34-.85,8.79-.85s6.24.3,8.38.9c2.14.6,3.7,1.47,4.71,2.6,1,1.13,1.51,2.49,1.53,4.07h-7.34c-.36-.87-1.16-1.54-2.4-2.02-1.25-.48-2.87-.72-4.87-.72-1.62,0-3.04.12-4.24.35-1.2.23-2.13.63-2.79,1.18-.66.56-.98,1.33-.98,2.34s.32,1.75.97,2.3c.64.56,1.57.95,2.77,1.17,1.2.22,2.62.33,4.27.33,2,0,3.63-.24,4.89-.72,1.26-.48,2.06-1.16,2.42-2.05h7.34c0,1.6-.5,2.97-1.5,4.1Z"/><path class="cls-4" d="m357.61,58.45c-.86-.51-1.99-.87-3.4-1.07-1.41-.2-2.96-.3-4.66-.3-2.27,0-4.03.3-5.27.88-1.25.59-1.87,1.48-1.87,2.69,0,.78.28,1.43.83,1.97.56.53,1.37.93,2.44,1.2,1.07.27,2.36.4,3.87.4,1.69,0,3.24-.11,4.66-.32,1.41-.21,2.55-.57,3.4-1.08.86-.51,1.28-1.23,1.28-2.17s-.43-1.69-1.28-2.2Z"/><path class="cls-4" d="m366.23,40.68h-30.76c-2.52,0-4.58,2.06-4.58,4.58v30.76c0,2.52,2.06,4.58,4.58,4.58h30.76c2.52,0,4.58-2.06,4.58-4.58v-30.76c0-2.52-2.06-4.58-4.58-4.58Zm.68,28.15h-7.54c-.16-1.02-.27-2.01-.35-2.97-.05-.65-.09-1.39-.1-2.19-.08.17-.15.34-.25.51-.6,1.06-1.47,1.97-2.6,2.74-1.13.77-2.5,1.36-4.1,1.77-1.6.41-3.4.62-5.41.62-2.4,0-4.54-.34-6.41-1.02-1.87-.68-3.34-1.66-4.42-2.95-1.08-1.29-1.62-2.85-1.62-4.67s.54-3.51,1.62-4.81c1.08-1.29,2.55-2.26,4.42-2.9,1.87-.64,4-.97,6.41-.97,2.67,0,4.98.36,6.92,1.08,1.95.72,3.45,1.74,4.5,3.04.37.46.68.95.92,1.46v-5.08h8.01v16.35Z"/><path class="cls-1" d="m280.91,42.97c-9.56-5.61-21.9-2.39-27.51,7.17-5.03,8.58-2.95,19.38,4.43,25.57l-1,6.16c-.17,1.05,1.04,1.76,1.88,1.1l4.89-3.88c9,3.43,19.44-.04,24.47-8.62,5.61-9.56,2.39-21.9-7.17-27.51Z"/><path class="cls-3" d="m277.44,53.79v4.31c-.2-.44-.45-.87-.77-1.27-.89-1.09-2.15-1.94-3.78-2.55-1.63-.61-3.57-.91-5.81-.91-2.01,0-3.8.27-5.37.81-1.57.54-2.8,1.35-3.71,2.43-.9,1.08-1.36,2.43-1.36,4.03s.45,2.84,1.36,3.92c.9,1.08,2.14,1.91,3.71,2.48,1.57.57,3.36.85,5.37.85,1.68,0,3.19-.17,4.53-.52,1.34-.34,2.49-.84,3.44-1.48.95-.64,1.68-1.41,2.18-2.29.08-.14.14-.28.21-.43.01.68.04,1.29.09,1.84.07.8.16,1.63.29,2.49h6.32v-13.71h-6.71Z"/></g></svg>