<?xml version="1.0" encoding="UTF-8"?><svg id="Camada_2" xmlns="http://www.w3.org/2000/svg" viewBox="0 0 42.51 42.55"><defs><style>.cls-1{fill:#fff;stroke-width:0px;}</style></defs><g id="Layer_1"><path class="cls-1" d="m36.05,13.95c-.8-1.34-2.62-1.73-3.92-1.92l-.31-.05c1.5,2.16,2.8,4.37,3.89,6.58.12-.27.22-.49.28-.67.61-1.66.63-2.99.06-3.95"/><path class="cls-1" d="m20.16,31.36c.72,1.86,1.47,2.82,2.37,2.99,1.13.23,2.62-.7,4.82-3.01.45-.47.94-1.03,1.44-1.67-2.51.06-5.54.31-9.01.74.07.18.37.94.37.94"/><path class="cls-1" d="m15.13,21.07c1.33,2.05,2.55,4.36,3.72,7.07.32-.04.66-.1.99-.15,3.33-.51,7.01-.72,10.67-.62,2.02-2.88,3.79-5.99,4.7-7.8-1.33-2.56-3.01-5.11-5.11-7.77-3.11-.27-6.62-.22-10.15.14-.51,1.18-1.3,2.95-2.41,4.88-.92,1.61-1.72,2.99-2.4,4.24"/><path class="cls-1" d="m36.28,6.23C32.26,2.21,26.92,0,21.24,0c-4.76,0-9.26,1.53-13.01,4.44C4.64,7.21,2,11.12.77,15.45c4.59-2.23,10.61-3.97,17.03-4.91.45-1.4.76-2.71,1.05-3.87.58-2.42,1-4.17,2.13-4.48,1.2-.34,3.13.99,6.64,4.57,0,0,0,0,0,0h0s2.66,3.15,2.66,3.15c1.48.1,2.84.28,4.04.52l.15.03c1.11.22,3.44.7,4.4,2.41.55.99.56,2.23.01,3.72-.61,1.7-1.26,3.23-1.96,4.71.61,1.49,1.11,2.98,1.5,4.45.01.07.04.18.05.31.05.35-.23.7-.24.72l-.11.14-.06-.17c-.43-1.53-.97-3.04-1.6-4.51-.95,1.88-1.99,3.62-3.19,5.31,3.09.23,5.8.69,7.84,1.33.92-2.42,1.39-4.97,1.39-7.58,0-5.68-2.21-11.02-6.23-15.04"/><path class="cls-1" d="m13.07,27.59c.5.75,1.91.97,4.53.7-.91-2.32-1.89-4.39-2.97-6.3-1.41,2.66-2.21,4.64-1.56,5.61"/><path class="cls-1" d="m28.48,9.83c-2.54-3-3.99-4.16-5.01-4-1.06.17-1.73,1.79-2.74,4.26l-.03.09c2.75-.3,5.37-.41,7.79-.34"/><path class="cls-1" d="m31.65,29.7c-1.24,1.54-2.66,3.13-4.48,5.01-2.65,2.71-4.11,3.95-5.29,3.65-.82-.21-1.42-1.17-1.96-3.11-.46-1.63-.95-3.2-1.46-4.66l-1.94.27c-4.35.63-6.77.29-7.62-1.06-1.22-1.91,1.05-5.67,4.15-10.37-.7-1.03-1.42-1.99-2.21-2.93-.08-.09-.15-.17-.2-.24l-.11-.13.17-.02c.28-.02.55.07.75.26.7.74,1.39,1.54,2.04,2.38l.3-.47,1.4-2.12c.77-1.17,1.42-2.45,1.98-3.85-7.93,1.2-13.64,3.66-16.05,6.78-.93,1.14-1.29,2.27-1.05,4.36.57,4.88,2.52,9.22,6.18,12.92,3.98,4.02,9.33,6.18,14.99,6.18,6.21,0,12.1-2.71,16.15-7.43.97-1.31,1.27-2.39.86-3.24-.62-1.3-2.84-2.03-6.6-2.19"/></g></svg>