<?xml version="1.0" encoding="UTF-8"?><svg id="Camada_2" xmlns="http://www.w3.org/2000/svg" viewBox="0 0 400 108.77"><defs><style>.cls-1{fill:#004f90;opacity:.8;}.cls-1,.cls-2,.cls-3{stroke-width:0px;}.cls-2{fill:#fff;}.cls-3{fill:#d980d5;}</style></defs><g id="content"><path class="cls-1" d="m.26,0c-.17,1.86-.26,15.41-.26,17.31v28.39c0,34.69,28.38,63.07,63.07,63.07h273.87c34.69,0,63.07-28.38,63.07-63.07v-28.39c0-1.9-.09-15.45-.26-17.31H.26Z"/><path class="cls-2" d="m129.25,25.33h-23.13c-1.89,0-3.44,1.55-3.44,3.44v23.13c0,1.89,1.55,3.44,3.44,3.44h23.13c1.89,0,3.44-1.55,3.44-3.44v-23.13c0-1.89-1.55-3.44-3.44-3.44Zm-1.23,18.9c-.75.85-1.94,1.51-3.56,1.96-1.62.45-3.73.68-6.32.68s-4.8-.21-6.61-.63c-1.82-.42-3.2-1.1-4.14-2.06-.95-.95-1.42-2.23-1.42-3.81s.47-2.86,1.42-3.83c.95-.96,2.33-1.66,4.14-2.08,1.82-.43,4.02-.64,6.61-.64s4.69.23,6.3.68,2.79,1.1,3.54,1.96c.75.85,1.14,1.87,1.15,3.06h-5.52c-.27-.65-.87-1.16-1.81-1.52-.94-.36-2.16-.54-3.66-.54-1.22,0-2.28.09-3.19.26-.9.18-1.6.47-2.1.89-.49.42-.74,1-.74,1.76s.24,1.31.73,1.73c.49.42,1.18.71,2.08.88.9.17,1.97.25,3.21.25,1.51,0,2.73-.18,3.68-.54.94-.36,1.55-.87,1.82-1.54h5.52c0,1.2-.38,2.23-1.13,3.09Z"/><path class="cls-2" d="m187.82,25.33h-23.13c-1.89,0-3.44,1.55-3.44,3.44v23.13c0,1.89,1.55,3.44,3.44,3.44h23.13c1.89,0,3.44-1.55,3.44-3.44v-23.13c0-1.89-1.55-3.44-3.44-3.44Zm-1.23,18.9c-.75.85-1.94,1.51-3.56,1.96-1.16.32-2.58.53-4.24.62v1.01c.67.11,1.27.25,1.81.42.57.18,1.02.42,1.37.73.34.31.51.72.51,1.24,0,.92-.57,1.66-1.72,2.22-1.15.56-2.78.84-4.91.84-1.37,0-2.53-.18-3.48-.54-.95-.36-1.67-.83-2.17-1.42-.5-.59-.79-1.2-.88-1.83h4.37c.05.05.14.14.26.26.13.13.33.24.6.35.28.11.66.16,1.14.16s.85-.06,1.09-.19c.24-.13.36-.3.36-.51,0-.13-.05-.27-.15-.41-.1-.14-.33-.28-.7-.41-.37-.13-.96-.25-1.78-.35v-1.56c-1.67-.09-3.15-.28-4.43-.57-1.82-.42-3.2-1.1-4.14-2.06-.95-.95-1.42-2.23-1.42-3.81s.47-2.86,1.42-3.83c.95-.96,2.33-1.66,4.14-2.08,1.82-.43,4.02-.64,6.61-.64s4.69.23,6.3.68c1.61.45,2.79,1.1,3.54,1.96.75.85,1.14,1.87,1.15,3.06h-5.52c-.27-.65-.87-1.16-1.81-1.52-.94-.36-2.16-.54-3.66-.54-1.22,0-2.28.09-3.19.26-.9.18-1.6.47-2.1.89-.49.42-.74,1-.74,1.76s.24,1.31.73,1.73c.49.42,1.18.71,2.08.88.9.17,1.97.25,3.21.25,1.51,0,2.73-.18,3.68-.54.94-.36,1.55-.87,1.82-1.54h5.52c0,1.2-.38,2.23-1.13,3.09Z"/><path class="cls-2" d="m212.3,38.69c-.64-.38-1.5-.65-2.56-.8-1.06-.15-2.23-.23-3.5-.23-1.71,0-3.03.22-3.96.66-.94.44-1.41,1.12-1.41,2.02,0,.59.21,1.08.63,1.48.42.4,1.03.7,1.83.9.8.2,1.77.3,2.91.3,1.27,0,2.44-.08,3.5-.24,1.06-.16,1.92-.43,2.56-.82.64-.38.97-.93.97-1.63s-.32-1.27-.97-1.66Z"/><path class="cls-2" d="m218.78,25.32h-23.13c-1.89,0-3.44,1.55-3.44,3.44v23.13c0,1.89,1.55,3.44,3.44,3.44h23.13c1.89,0,3.44-1.55,3.44-3.44v-23.13c0-1.89-1.55-3.44-3.44-3.44Zm.51,21.17h-5.67c-.12-.77-.21-1.51-.26-2.23-.04-.49-.07-1.04-.08-1.65-.06.13-.11.26-.19.38-.45.79-1.1,1.48-1.96,2.06-.85.58-1.88,1.02-3.09,1.33-1.2.31-2.56.46-4.07.46-1.81,0-3.41-.26-4.82-.77-1.41-.51-2.51-1.25-3.33-2.22-.81-.97-1.22-2.14-1.22-3.51s.41-2.64,1.22-3.61c.81-.97,1.92-1.7,3.33-2.18,1.41-.48,3.01-.73,4.82-.73,2.01,0,3.74.27,5.21.82,1.46.54,2.59,1.31,3.39,2.28.28.35.51.71.69,1.1v-3.82h6.02v12.3Z"/><path class="cls-3" d="m154.62,27.04c-7.19-4.22-16.47-1.8-20.69,5.39-3.78,6.45-2.22,14.58,3.33,19.23l-.75,4.64c-.13.79.78,1.33,1.41.83l3.68-2.92c6.77,2.58,14.62-.03,18.41-6.48,4.22-7.19,1.8-16.47-5.39-20.69Z"/><path class="cls-2" d="m152,35.18v3.24c-.15-.33-.34-.66-.58-.95-.67-.82-1.61-1.46-2.84-1.91-1.23-.46-2.68-.68-4.37-.68-1.52,0-2.86.2-4.04.61-1.18.41-2.11,1.02-2.79,1.83-.68.81-1.02,1.82-1.02,3.03s.34,2.13,1.02,2.95c.68.81,1.61,1.43,2.79,1.86,1.18.43,2.52.64,4.04.64,1.26,0,2.4-.13,3.41-.39,1.01-.26,1.87-.63,2.59-1.12.72-.48,1.26-1.06,1.64-1.73.06-.1.11-.21.16-.32.01.51.03.97.07,1.38.05.6.12,1.23.22,1.87h4.76v-10.31h-5.05Z"/><path class="cls-2" d="m232.1,40.34h11.3v3.32h-11.3v-3.32Z"/><path class="cls-2" d="m121.03,63.4c3.33,0,6.03.69,8.11,2.08,2.08,1.38,3.11,3.29,3.11,5.72s-1.03,4.44-3.08,5.79c-2.06,1.35-4.77,2.03-8.14,2.03-2.81,0-5.18-.45-7.11-1.35-1.94-.9-3.27-2.14-4.02-3.7v10.62h-7.22v-20.76h6.8l.36,4.78c.7-1.62,2.03-2.9,3.99-3.82s4.36-1.38,7.2-1.38Zm-2.71,11.01c4.29,0,6.44-1.07,6.44-3.22,0-1.06-.56-1.87-1.67-2.41s-2.7-.81-4.77-.81c-5.62,0-8.42,1.07-8.42,3.22s2.81,3.22,8.42,3.22Z"/><path class="cls-2" d="m156.7,63.83h7.22v14.74h-6.8c-.22-1.18-.36-2.73-.42-4.63-.72,1.56-2.06,2.8-4,3.7-1.95.9-4.32,1.35-7.13,1.35-3.33,0-6.03-.69-8.11-2.08-2.08-1.38-3.11-3.29-3.11-5.72,0-1.68.49-3.12,1.47-4.32.98-1.19,2.31-2.08,3.97-2.65,1.66-.57,3.59-.86,5.78-.86,1.87,0,3.55.21,5.07.62,1.51.41,2.78.99,3.81,1.74,1.02.75,1.77,1.65,2.26,2.69v-4.6Zm-8.42,10.59c5.62,0,8.42-1.07,8.42-3.22s-2.81-3.22-8.42-3.22c-2.09,0-3.68.27-4.78.81-1.1.54-1.65,1.34-1.65,2.41,0,.7.25,1.29.75,1.77s1.23.84,2.2,1.08c.96.24,2.13.36,3.49.36Z"/><path class="cls-2" d="m167.08,57.81h7.22v20.76h-7.22v-20.76Z"/><path class="cls-2" d="m199.51,63.83h7.22v14.74h-6.8c-.22-1.18-.36-2.73-.42-4.63-.72,1.56-2.06,2.8-4,3.7-1.95.9-4.32,1.35-7.13,1.35-3.33,0-6.03-.69-8.11-2.08-2.08-1.38-3.11-3.29-3.11-5.72,0-1.68.49-3.12,1.47-4.32.98-1.19,2.31-2.08,3.97-2.65,1.66-.57,3.59-.86,5.78-.86,1.87,0,3.55.21,5.07.62,1.51.41,2.78.99,3.81,1.74,1.02.75,1.77,1.65,2.26,2.69v-4.6Zm-8.42,10.59c5.62,0,8.42-1.07,8.42-3.22s-2.81-3.22-8.42-3.22c-2.09,0-3.68.27-4.78.81-1.1.54-1.65,1.34-1.65,2.41,0,.7.25,1.29.75,1.77s1.23.84,2.2,1.08c.96.24,2.13.36,3.49.36Z"/><path class="cls-2" d="m227.57,63.83h7.97l-10.5,14.74h-6.8l-10.02-14.74h7.94l5.57,9.24,5.84-9.24Z"/><path class="cls-2" d="m252.03,63.37v6.02c-1.32,0-2.58.14-3.76.41-1.18.27-2.05.53-2.59.78-.54.25-1.01.52-1.41.8v7.19h-7.22v-14.74h7.22v5.08c.26-.62.61-1.24,1.04-1.85.43-.61.96-1.2,1.59-1.78.63-.57,1.39-1.03,2.29-1.38.89-.35,1.84-.53,2.84-.53Z"/><path class="cls-2" d="m276.04,63.83h7.22v14.74h-6.8c-.22-1.18-.36-2.73-.42-4.63-.72,1.56-2.06,2.8-4,3.7-1.95.9-4.32,1.35-7.13,1.35-3.33,0-6.03-.69-8.11-2.08-2.08-1.38-3.11-3.29-3.11-5.72,0-1.68.49-3.12,1.47-4.32.98-1.19,2.31-2.08,3.97-2.65,1.66-.57,3.59-.86,5.78-.86,1.87,0,3.55.21,5.07.62,1.51.41,2.78.99,3.81,1.74,1.02.75,1.77,1.65,2.26,2.69v-4.6Zm-8.42,10.59c5.62,0,8.42-1.07,8.42-3.22s-2.81-3.22-8.42-3.22c-2.09,0-3.68.27-4.78.81-1.1.54-1.65,1.34-1.65,2.41,0,.7.25,1.29.75,1.77s1.23.84,2.2,1.08c.96.24,2.13.36,3.49.36Z"/><path class="cls-2" d="m285.81,73.27h6.65c.28.5.79.83,1.52.98.73.15,1.9.23,3.5.23.56,0,1.05,0,1.47-.03.42-.02.77-.06,1.05-.11.28-.05.51-.11.69-.17.18-.06.32-.14.41-.23.09-.09.16-.18.2-.27.04-.09.06-.2.06-.32,0-.48-.48-.81-1.43-.99-.95-.18-2.6-.27-4.95-.27-1.24,0-2.32-.03-3.22-.09-.9-.06-1.76-.17-2.56-.33-.8-.16-1.45-.38-1.96-.66-.5-.28-.89-.64-1.17-1.08-.28-.44-.42-.97-.42-1.59,0-3.31,3.94-4.96,11.82-4.96,3.61,0,6.33.53,8.15,1.59,1.82,1.06,2.73,2.45,2.71,4.15h-6.47c-.22-.5-.63-.83-1.23-.99-.6-.16-1.65-.24-3.16-.24s-2.67.09-3.32.26c-.65.17-.98.48-.98.92,0,.32.16.57.47.74.31.17.93.31,1.87.41.93.1,2.28.15,4.05.15h1.74c.44,0,.99.02,1.65.06.66.04,1.2.1,1.61.17.41.07.87.17,1.38.29.51.12.92.28,1.23.47.31.19.61.42.89.68.28.26.49.58.62.95.13.37.2.79.2,1.25,0,3.21-3.8,4.81-11.4,4.81-1.93,0-3.63-.14-5.1-.41s-2.63-.61-3.46-1.02c-.83-.41-1.5-.88-2-1.41-.5-.53-.82-1.03-.96-1.5-.14-.47-.19-.94-.15-1.4Z"/></g></svg>